# xmcd
#
# Track frame offsets:
#	150
#	15630
#	30452
#	49332
#	60445
#	74241
#	84524
#	99490
#	119919
#	137427
#	157024
#	169230
#	187372
#	203267
#	219102
#	234186
#	247695
#	262280
#	277468
#	291744
#
# Disc length: 4130 seconds
#
# Revision: 3
# Processed by: cddbd v1.5.2PL0 Copyright (c) Steve Scherf et al.
# Submitted via: audiograbber 1.83.01
#
DISCID=35102014
DTITLE=Various Artist - The New Age Of Country Music [Disc 4]
DYEAR=2000
DGENRE=Country
TTITLE0=Billy Ray Cyrus - Achy Breaky Heart
TTITLE1=Colin Buchanan - That Old Caravan
TTITLE2=Troy Casser-Daley - End Of The Road
TTITLE3=John Michael Montgomery - Hello L.O.V.E.
TTITLE4=John Anderson - Swingin'
TTITLE5=Mark O'Shea - The Swimming Song
TTITLE6=Adam Brand - Last Man Standing
TTITLE7=Steve Earle - Copperhead Road
TTITLE8=Ricky Skaggs - Country Boy
TTITLE9=John Williamson with Warren H. Williams - Raining On The Rock
TTITLE10=Mindy McCready - A Girl's Gotta Do (What A Girl's Gotta Do)
TTITLE11=Kasey Chambers - Cry Like A Baby
TTITLE12=Shanley Del - Somewhere Out There
TTITLE13=Jo Dee Messina - Heads Carolina, Tails California
TTITLE14=Lorrie Morgan - I Didn't Know My Own Strength
TTITLE15=Tania Kernaghan - Boys In Boots
TTITLE16=Gina Jeffreys - Girls Night Out
TTITLE17=Lila McCann - Crush
TTITLE18=Suzy Bogguss - Drive South
TTITLE19=Sherrié Austin - One Solitary Tear
EXTD=
EXTT0=
EXTT1=
EXTT2=
EXTT3=
EXTT4=
EXTT5=
EXTT6=
EXTT7=
EXTT8=
EXTT9=
EXTT10=
EXTT11=
EXTT12=
EXTT13=
EXTT14=
EXTT15=
EXTT16=
EXTT17=
EXTT18=
EXTT19=
PLAYORDER=
